<svg width="52" height="43" viewBox="0 0 52 43" fill="none" xmlns="http://www.w3.org/2000/svg">
<g filter="url(#filter0_d_391_74)">
<path d="M4.7755 11.7073C5.22899 11.1988 5.94257 11.0119 6.58758 11.2319L11.5904 12.7638C12.5432 13.0897 13.586 13.0309 14.4972 12.6007L20.3281 9.86188L15.309 2.98761C14.9225 2.57416 14.8569 1.95035 15.1542 1.46518C15.4495 0.982073 16.034 0.754006 16.5785 0.908639L26.6801 5.53572L24.6827 6.47506L26.0345 7.17878L28.1244 6.19703L37.0871 1.98444C42.0373 -0.349762 46.0252 0.507767 47.2424 3.09062C48.4596 5.67424 44.9417 7.20256 42.359 8.41968L33.4119 12.6446L28.4812 32.9565C28.3112 33.7081 27.6202 34.2258 26.8465 34.1752C26.0769 34.1237 25.4601 33.5218 25.3888 32.7513L22.7833 17.6602L16.5558 20.6012C12.5731 22.3615 8.36168 22.1169 7.14446 19.5351L4.50564 13.5611C4.2144 12.9457 4.32018 12.2149 4.7755 11.7073Z" fill="white"/>
</g>
<defs>
<filter id="filter0_d_391_74" x="0.342957" y="0.621582" width="51.1478" height="41.5571" filterUnits="userSpaceOnUse" color-interpolation-filters="sRGB">
<feFlood flood-opacity="0" result="BackgroundImageFix"/>
<feColorMatrix in="SourceAlpha" type="matrix" values="0 0 0 0 0 0 0 0 0 0 0 0 0 0 0 0 0 0 127 0" result="hardAlpha"/>
<feOffset dy="4"/>
<feGaussianBlur stdDeviation="2"/>
<feComposite in2="hardAlpha" operator="out"/>
<feColorMatrix type="matrix" values="0 0 0 0 0 0 0 0 0 0 0 0 0 0 0 0 0 0 0.25 0"/>
<feBlend mode="normal" in2="BackgroundImageFix" result="effect1_dropShadow_391_74"/>
<feBlend mode="normal" in="SourceGraphic" in2="effect1_dropShadow_391_74" result="shape"/>
</filter>
</defs>
</svg>
